<mxfile host="app.diagrams.net" modified="2024-06-20T16:37:34.540Z" agent="Mozilla/5.0 (Macintosh; Intel Mac OS X 10_15_7) AppleWebKit/537.36 (KHTML, like Gecko) Chrome/126.0.0.0 Safari/537.36" version="24.5.5" etag="4wZFq87iNqBTT563AGiz" type="github">
  <diagram name="Page-1" id="9AAWPMY6oydr9VhNSEO2">
    <mxGraphModel>
      <root>
        <mxCell id="0" />
        <mxCell id="1" parent="0" />
        <mxCell id="2" value="CAR" style="shape=table;startSize=25;container=1;collapsible=0;childLayout=tableLayout;fixedRows=1;rowLines=1;fontStyle=1;align=center;resizeLast=1;" vertex="1" parent="1">
          <mxGeometry x="23" y="20" width="100" height="112" as="geometry" />
        </mxCell>
        <mxCell id="3" style="shape=tableRow;horizontal=0;startSize=0;swimlaneHead=0;swimlaneBody=0;fillColor=none;collapsible=0;dropTarget=0;points=[[0,0.5],[1,0.5]];portConstraint=eastwest;top=0;left=0;right=0;bottom=0;" vertex="1" parent="2">
          <mxGeometry y="22" width="100" height="22" as="geometry" />
        </mxCell>
        <mxCell id="4" value="string" style="shape=partialRectangle;connectable=0;fillColor=none;top=0;left=0;bottom=0;right=0;align=left;spacingLeft=2;overflow=hidden;fontSize=11;" vertex="1" parent="3">
          <mxGeometry width="36" height="22" as="geometry" />
        </mxCell>
        <mxCell id="5" value="VIN" style="shape=partialRectangle;connectable=0;fillColor=none;top=0;left=0;bottom=0;right=0;align=left;spacingLeft=2;overflow=hidden;fontSize=11;" vertex="1" parent="3">
          <mxGeometry width="64" height="22" as="geometry" />
        </mxCell>
        <mxCell id="6" style="shape=tableRow;horizontal=0;startSize=0;swimlaneHead=0;swimlaneBody=0;fillColor=none;collapsible=0;dropTarget=0;points=[[0,0.5],[1,0.5]];portConstraint=eastwest;top=0;left=0;right=0;bottom=0;" vertex="1" parent="2">
          <mxGeometry y="44" width="100" height="22" as="geometry" />
        </mxCell>
        <mxCell id="7" value="int" style="shape=partialRectangle;connectable=0;fillColor=none;top=0;left=0;bottom=0;right=0;align=left;spacingLeft=2;overflow=hidden;fontSize=11;" vertex="1" parent="6">
          <mxGeometry width="36" height="22" as="geometry" />
        </mxCell>
        <mxCell id="8" value="Year" style="shape=partialRectangle;connectable=0;fillColor=none;top=0;left=0;bottom=0;right=0;align=left;spacingLeft=2;overflow=hidden;fontSize=11;" vertex="1" parent="6">
          <mxGeometry width="64" height="22" as="geometry" />
        </mxCell>
        <mxCell id="9" style="shape=tableRow;horizontal=0;startSize=0;swimlaneHead=0;swimlaneBody=0;fillColor=none;collapsible=0;dropTarget=0;points=[[0,0.5],[1,0.5]];portConstraint=eastwest;top=0;left=0;right=0;bottom=0;" vertex="1" parent="2">
          <mxGeometry y="65" width="100" height="22" as="geometry" />
        </mxCell>
        <mxCell id="10" value="string" style="shape=partialRectangle;connectable=0;fillColor=none;top=0;left=0;bottom=0;right=0;align=left;spacingLeft=2;overflow=hidden;fontSize=11;" vertex="1" parent="9">
          <mxGeometry width="36" height="22" as="geometry" />
        </mxCell>
        <mxCell id="11" value="Model" style="shape=partialRectangle;connectable=0;fillColor=none;top=0;left=0;bottom=0;right=0;align=left;spacingLeft=2;overflow=hidden;fontSize=11;" vertex="1" parent="9">
          <mxGeometry width="64" height="22" as="geometry" />
        </mxCell>
        <mxCell id="12" style="shape=tableRow;horizontal=0;startSize=0;swimlaneHead=0;swimlaneBody=0;fillColor=none;collapsible=0;dropTarget=0;points=[[0,0.5],[1,0.5]];portConstraint=eastwest;top=0;left=0;right=0;bottom=0;" vertex="1" parent="2">
          <mxGeometry y="87" width="100" height="22" as="geometry" />
        </mxCell>
        <mxCell id="13" value="string" style="shape=partialRectangle;connectable=0;fillColor=none;top=0;left=0;bottom=0;right=0;align=left;spacingLeft=2;overflow=hidden;fontSize=11;" vertex="1" parent="12">
          <mxGeometry width="36" height="22" as="geometry" />
        </mxCell>
        <mxCell id="14" value="Make" style="shape=partialRectangle;connectable=0;fillColor=none;top=0;left=0;bottom=0;right=0;align=left;spacingLeft=2;overflow=hidden;fontSize=11;" vertex="1" parent="12">
          <mxGeometry width="64" height="22" as="geometry" />
        </mxCell>
        <mxCell id="15" value="DRIVER" style="shape=table;startSize=25;container=1;collapsible=0;childLayout=tableLayout;fixedRows=1;rowLines=1;fontStyle=1;align=center;resizeLast=1;" vertex="1" parent="1">
          <mxGeometry x="20" y="232" width="106" height="90" as="geometry" />
        </mxCell>
        <mxCell id="16" style="shape=tableRow;horizontal=0;startSize=0;swimlaneHead=0;swimlaneBody=0;fillColor=none;collapsible=0;dropTarget=0;points=[[0,0.5],[1,0.5]];portConstraint=eastwest;top=0;left=0;right=0;bottom=0;" vertex="1" parent="15">
          <mxGeometry y="22" width="106" height="22" as="geometry" />
        </mxCell>
        <mxCell id="17" value="string" style="shape=partialRectangle;connectable=0;fillColor=none;top=0;left=0;bottom=0;right=0;align=left;spacingLeft=2;overflow=hidden;fontSize=11;" vertex="1" parent="16">
          <mxGeometry width="36" height="22" as="geometry" />
        </mxCell>
        <mxCell id="18" value="License_Num" style="shape=partialRectangle;connectable=0;fillColor=none;top=0;left=0;bottom=0;right=0;align=left;spacingLeft=2;overflow=hidden;fontSize=11;" vertex="1" parent="16">
          <mxGeometry width="70" height="22" as="geometry" />
        </mxCell>
        <mxCell id="19" style="shape=tableRow;horizontal=0;startSize=0;swimlaneHead=0;swimlaneBody=0;fillColor=none;collapsible=0;dropTarget=0;points=[[0,0.5],[1,0.5]];portConstraint=eastwest;top=0;left=0;right=0;bottom=0;" vertex="1" parent="15">
          <mxGeometry y="43" width="106" height="22" as="geometry" />
        </mxCell>
        <mxCell id="20" value="string" style="shape=partialRectangle;connectable=0;fillColor=none;top=0;left=0;bottom=0;right=0;align=left;spacingLeft=2;overflow=hidden;fontSize=11;" vertex="1" parent="19">
          <mxGeometry width="36" height="22" as="geometry" />
        </mxCell>
        <mxCell id="21" value="Name" style="shape=partialRectangle;connectable=0;fillColor=none;top=0;left=0;bottom=0;right=0;align=left;spacingLeft=2;overflow=hidden;fontSize=11;" vertex="1" parent="19">
          <mxGeometry width="70" height="22" as="geometry" />
        </mxCell>
        <mxCell id="22" style="shape=tableRow;horizontal=0;startSize=0;swimlaneHead=0;swimlaneBody=0;fillColor=none;collapsible=0;dropTarget=0;points=[[0,0.5],[1,0.5]];portConstraint=eastwest;top=0;left=0;right=0;bottom=0;" vertex="1" parent="15">
          <mxGeometry y="65" width="106" height="22" as="geometry" />
        </mxCell>
        <mxCell id="23" value="int" style="shape=partialRectangle;connectable=0;fillColor=none;top=0;left=0;bottom=0;right=0;align=left;spacingLeft=2;overflow=hidden;fontSize=11;" vertex="1" parent="22">
          <mxGeometry width="36" height="22" as="geometry" />
        </mxCell>
        <mxCell id="24" value="Age" style="shape=partialRectangle;connectable=0;fillColor=none;top=0;left=0;bottom=0;right=0;align=left;spacingLeft=2;overflow=hidden;fontSize=11;" vertex="1" parent="22">
          <mxGeometry width="70" height="22" as="geometry" />
        </mxCell>
        <mxCell id="25" value="DRIVES" style="curved=1;startArrow=ERmandOne;startSize=10;;endArrow=ERmandOne;endSize=10;;exitX=0.5;exitY=1;entryX=0.5;entryY=0;" edge="1" parent="1" source="2" target="15">
          <mxGeometry relative="1" as="geometry">
            <Array as="points" />
          </mxGeometry>
        </mxCell>
      </root>
    </mxGraphModel>
  </diagram>
</mxfile>
